<svg width="512" height="512" viewBox="0 0 512 512" fill="none" xmlns="http://www.w3.org/2000/svg">
  <rect width="512" height="512" rx="256" fill="#F5F3EE"/>
  <path d="M256 136C271.464 136 284 148.536 284 164V174.5L304.5 154C308.404 150.096 314.73 150.096 318.634 154C322.538 157.904 322.538 164.23 318.634 168.134L294.768 192H217.232L193.366 168.134C189.462 164.23 189.462 157.904 193.366 154C197.27 150.096 203.596 150.096 207.5 154L228 174.5V164C228 148.536 240.536 136 256 136Z" fill="#1F2937"/>
  <path d="M182 250C182 244.477 186.477 240 192 240H320C325.523 240 330 244.477 330 250C330 255.523 325.523 260 320 260H192C186.477 260 182 255.523 182 250Z" fill="#1F2937"/>
  <path d="M150 288C150 282.477 154.477 278 160 278H352C357.523 278 362 282.477 362 288C362 293.523 357.523 298 352 298H160C154.477 298 150 293.523 150 288Z" fill="#1F2937"/>
  <path d="M184 320C184 314.477 188.477 310 194 310H318C323.523 310 328 314.477 328 320C328 325.523 323.523 330 318 330H194C188.477 330 184 325.523 184 320Z" fill="#1F2937"/>
  <path d="M208 356C208 350.477 212.477 346 218 346H294C299.523 346 304 350.477 304 356C304 361.523 299.523 366 294 366H218C212.477 366 208 361.523 208 356Z" fill="#1F2937"/>
  <text x="256" y="404" text-anchor="middle" fill="#111827" font-family="Arial, Helvetica, sans-serif" font-size="30" letter-spacing="6">JERSEY ADDA</text>
  <text x="256" y="434" text-anchor="middle" fill="#111827" font-family="Arial, Helvetica, sans-serif" font-size="14" letter-spacing="4">RETRO JERSEY'S</text>
</svg>